<?xml version="1.0" encoding="UTF-8"?>
<!DOCTYPE svg PUBLIC "-//W3C//DTD SVG 1.1//EN" "http://www.w3.org/Graphics/SVG/1.1/DTD/svg11.dtd">
<svg xmlns="http://www.w3.org/2000/svg" version="1.1" width="398px" height="290px" style="shape-rendering:geometricPrecision; text-rendering:geometricPrecision; image-rendering:optimizeQuality; fill-rule:evenodd; clip-rule:evenodd" xmlns:xlink="http://www.w3.org/1999/xlink">
<g><path style="opacity:1" fill="#fef3d3" d="M -0.5,-0.5 C 132.167,-0.5 264.833,-0.5 397.5,-0.5C 397.5,96.1667 397.5,192.833 397.5,289.5C 264.833,289.5 132.167,289.5 -0.5,289.5C -0.5,192.833 -0.5,96.1667 -0.5,-0.5 Z"/></g>
<g><path style="opacity:1" fill="#7e7a75" d="M 150.5,10.5 C 154.298,9.51658 158.298,9.18325 162.5,9.5C 160.945,10.6327 159.111,11.2994 157,11.5C 154.863,10.9233 152.696,10.59 150.5,10.5 Z"/></g>
<g><path style="opacity:1" fill="#2e2b2a" d="M 139.5,280.5 C 139.263,279.209 139.596,278.209 140.5,277.5C 203.291,282.696 265.291,277.863 326.5,263C 339.329,259.001 351.996,254.501 364.5,249.5C 365.5,180.503 365.833,111.503 365.5,42.5C 338.795,34.2584 311.795,27.0918 284.5,21C 243.533,12.9836 202.199,10.317 160.5,13C 134.479,14.7256 108.813,18.7256 83.5,25C 62.0684,30.5537 40.7351,36.387 19.5,42.5C 19.5,45.5 19.5,48.5 19.5,51.5C 16.9459,48.4103 15.9459,44.7437 16.5,40.5C 59.8626,25.3755 104.529,15.3755 150.5,10.5C 152.696,10.59 154.863,10.9233 157,11.5C 159.111,11.2994 160.945,10.6327 162.5,9.5C 195.258,7.89267 227.925,9.05933 260.5,13C 297.349,19.7325 333.516,28.8992 369,40.5C 369.833,110.836 369.667,181.169 368.5,251.5C 336.391,264.695 303.058,273.528 268.5,278C 241.728,280.853 214.895,282.686 188,283.5C 171.737,283.839 155.57,282.839 139.5,280.5 Z"/></g>
<g><path style="opacity:1" fill="#f7edce" d="M 140.5,277.5 C 139.081,276.549 137.415,276.216 135.5,276.5C 95.8403,271.584 57.1736,262.584 19.5,249.5C 19.5,246.833 19.5,244.167 19.5,241.5C 19.5,236.5 19.5,231.5 19.5,226.5C 19.5,199.5 19.5,172.5 19.5,145.5C 19.5,142.833 19.5,140.167 19.5,137.5C 19.5,110.833 19.5,84.1667 19.5,57.5C 19.5,55.5 19.5,53.5 19.5,51.5C 19.5,48.5 19.5,45.5 19.5,42.5C 40.7351,36.387 62.0684,30.5537 83.5,25C 108.813,18.7256 134.479,14.7256 160.5,13C 202.199,10.317 243.533,12.9836 284.5,21C 311.795,27.0918 338.795,34.2584 365.5,42.5C 365.833,111.503 365.5,180.503 364.5,249.5C 351.996,254.501 339.329,259.001 326.5,263C 265.291,277.863 203.291,282.696 140.5,277.5 Z"/></g>
<g><path style="opacity:1" fill="#fdf2d3" d="M 32.5,240.5 C 32.1706,177.429 32.5039,114.429 33.5,51.5C 37.0477,50.8699 40.3811,49.8699 43.5,48.5C 81.6194,36.5892 120.619,28.7559 160.5,25C 206.016,22.5486 251.016,26.2153 295.5,36C 314.946,40.8985 334.279,46.0652 353.5,51.5C 353.5,114.833 353.5,178.167 353.5,241.5C 327.773,250.351 301.44,256.851 274.5,261C 192.014,274.371 111.348,267.538 32.5,240.5 Z"/></g>
<g><path style="opacity:1" fill="#565452" d="M 41.5,45.5 C 41.2852,47.1788 41.9519,48.1788 43.5,48.5C 40.3811,49.8699 37.0477,50.8699 33.5,51.5C 33.1667,51.5 32.8333,51.5 32.5,51.5C 31.8902,50.609 31.5569,49.609 31.5,48.5C 34.7672,47.2474 38.1006,46.2474 41.5,45.5 Z"/></g>
<g><path style="opacity:1" fill="#222021" d="M 30.5,48.5 C 30.8333,48.5 31.1667,48.5 31.5,48.5C 31.5569,49.609 31.8902,50.609 32.5,51.5C 31.501,108.331 31.1677,165.331 31.5,222.5C 30.5,222.5 29.5,222.5 28.5,222.5C 28.3334,197.831 28.5,173.164 29,148.5C 31,146.167 31,143.833 29,141.5C 28.8333,126.167 28.6667,110.833 28.5,95.5C 28.5153,79.6133 29.1819,63.9467 30.5,48.5 Z"/></g>
<g><path style="opacity:1" fill="#2b2928" d="M 195.5,113.5 C 202.175,113.334 208.842,113.5 215.5,114C 216.38,115.356 216.714,116.856 216.5,118.5C 210.5,118.5 204.5,118.5 198.5,118.5C 198.5,120.5 198.5,122.5 198.5,124.5C 201.5,124.5 204.5,124.5 207.5,124.5C 207.5,125.833 207.5,127.167 207.5,128.5C 204.5,128.5 201.5,128.5 198.5,128.5C 198.666,134.509 198.499,140.509 198,146.5C 196.667,147.833 195.333,147.833 194,146.5C 193.333,136.167 193.333,125.833 194,115.5C 194.717,114.956 195.217,114.289 195.5,113.5 Z"/></g>
<g><path style="opacity:1" fill="#33302e" d="M 157.5,117.5 C 159.167,117.5 160.833,117.5 162.5,117.5C 162.65,121.161 161.15,122.161 158,120.5C 157.517,119.552 157.351,118.552 157.5,117.5 Z"/></g>
<g><path style="opacity:1" fill="#343130" d="M 222.5,117.5 C 224.167,117.5 225.833,117.5 227.5,117.5C 227.65,121.161 226.15,122.161 223,120.5C 222.517,119.552 222.351,118.552 222.5,117.5 Z"/></g>
<g><path style="opacity:1" fill="#252323" d="M 289.5,118.5 C 289.5,120.5 289.5,122.5 289.5,124.5C 290.833,124.5 292.167,124.5 293.5,124.5C 294.434,125.568 294.768,126.901 294.5,128.5C 293.167,128.5 291.833,128.5 290.5,128.5C 289.503,128.47 288.836,128.97 288.5,130C 289.233,131.766 289.567,133.599 289.5,135.5C 288.167,135.5 286.833,135.5 285.5,135.5C 285.5,133.167 285.5,130.833 285.5,128.5C 283.833,128.5 282.167,128.5 280.5,128.5C 280.232,126.901 280.566,125.568 281.5,124.5C 282.833,124.5 284.167,124.5 285.5,124.5C 285.5,122.5 285.5,120.5 285.5,118.5C 286.833,117.167 288.167,117.167 289.5,118.5 Z"/></g>
<g><path style="opacity:1" fill="#9d9785" d="M 285.5,118.5 C 285.5,120.5 285.5,122.5 285.5,124.5C 284.167,124.5 282.833,124.5 281.5,124.5C 282.209,123.596 283.209,123.263 284.5,123.5C 284.216,121.585 284.549,119.919 285.5,118.5 Z"/></g>
<g><path style="opacity:1" fill="#908a7a" d="M 289.5,118.5 C 290.451,119.919 290.784,121.585 290.5,123.5C 291.791,123.263 292.791,123.596 293.5,124.5C 292.167,124.5 290.833,124.5 289.5,124.5C 289.5,122.5 289.5,120.5 289.5,118.5 Z"/></g>
<g><path style="opacity:1" fill="#282525" d="M 106.5,124.5 C 119.631,123.125 124.798,128.792 122,141.5C 114.507,149.746 107.507,149.412 101,140.5C 99.0165,133.66 100.85,128.327 106.5,124.5 Z"/></g>
<g><path style="opacity:1" fill="#2c2a29" d="M 129.5,124.5 C 130.822,124.33 131.989,124.663 133,125.5C 135.5,129.833 138,134.167 140.5,138.5C 142.921,134.66 145.088,130.66 147,126.5C 148.396,124.473 150.062,124.14 152,125.5C 149.487,133.028 145.987,140.195 141.5,147C 140.004,147.507 138.837,147.007 138,145.5C 134.833,139.167 131.667,132.833 128.5,126.5C 128.863,125.817 129.196,125.15 129.5,124.5 Z"/></g>
<g><path style="opacity:1" fill="#2b2828" d="M 157.5,124.5 C 159.167,124.5 160.833,124.5 162.5,124.5C 162.666,131.841 162.5,139.174 162,146.5C 160.667,147.833 159.333,147.833 158,146.5C 157.5,139.174 157.334,131.841 157.5,124.5 Z"/></g>
<g><path style="opacity:1" fill="#2b2828" d="M 174.5,124.5 C 189.098,123.883 191.098,128.383 180.5,138C 178.393,138.854 177.059,138.188 176.5,136C 177.961,133.702 179.628,131.535 181.5,129.5C 176.461,128.18 173.461,130.18 172.5,135.5C 172.556,138.111 173.556,140.278 175.5,142C 179.697,142.489 183.697,142.155 187.5,141C 188.727,142.587 188.394,143.921 186.5,145C 179.534,149.146 173.7,147.98 169,141.5C 165.787,134.129 167.62,128.462 174.5,124.5 Z"/></g>
<g><path style="opacity:1" fill="#2c2a29" d="M 222.5,124.5 C 224.167,124.5 225.833,124.5 227.5,124.5C 227.666,131.841 227.5,139.174 227,146.5C 225.667,147.833 224.333,147.833 223,146.5C 222.5,139.174 222.334,131.841 222.5,124.5 Z"/></g>
<g><path style="opacity:1" fill="#2c2a29" d="M 239.5,124.5 C 254.098,123.883 256.098,128.383 245.5,138C 243.393,138.854 242.059,138.188 241.5,136C 242.961,133.702 244.628,131.535 246.5,129.5C 241.461,128.18 238.461,130.18 237.5,135.5C 237.556,138.111 238.556,140.278 240.5,142C 244.697,142.489 248.697,142.155 252.5,141C 253.727,142.587 253.394,143.921 251.5,145C 244.534,149.146 238.7,147.98 234,141.5C 230.783,134.102 232.617,128.435 239.5,124.5 Z"/></g>
<g><path style="opacity:1" fill="#282626" d="M 274.5,141.5 C 273.167,140.5 271.833,139.5 270.5,138.5C 268.856,136.148 266.523,134.815 263.5,134.5C 260.833,131.5 260.833,128.5 263.5,125.5C 270.354,124.374 271.021,125.874 265.5,130C 268.01,131.09 270.51,132.257 273,133.5C 274.252,136.014 274.752,138.68 274.5,141.5 Z"/></g>
<g><path style="opacity:1" fill="#262424" d="M 315.5,124.5 C 315.833,126.5 316.167,128.5 316.5,130.5C 313.094,127.941 309.76,127.941 306.5,130.5C 306.167,129.167 305.833,127.833 305.5,126.5C 305.611,125.883 305.944,125.383 306.5,125C 309.482,124.502 312.482,124.335 315.5,124.5 Z"/></g>
<g><path style="opacity:1" fill="#646261" d="M 315.5,124.5 C 319.26,125.926 321.593,128.593 322.5,132.5C 321.167,132.833 319.833,133.167 318.5,133.5C 317.599,132.71 316.932,131.71 316.5,130.5C 316.167,128.5 315.833,126.5 315.5,124.5 Z"/></g>
<g><path style="opacity:1" fill="#6f6d6d" d="M 305.5,126.5 C 305.833,127.833 306.167,129.167 306.5,130.5C 306.011,131.995 305.345,133.329 304.5,134.5C 304.405,132.214 303.738,130.214 302.5,128.5C 302.973,127.094 303.973,126.427 305.5,126.5 Z"/></g>
<g><path style="opacity:1" fill="#f1e7c9" d="M 108.5,128.5 C 117.549,128.701 120.215,132.868 116.5,141C 108.901,144.05 105.067,141.55 105,133.5C 105.997,131.677 107.164,130.01 108.5,128.5 Z"/></g>
<g><path style="opacity:1" fill="#f4eacd" d="M 316.5,130.5 C 316.932,131.71 317.599,132.71 318.5,133.5C 318.124,142.022 314.124,144.355 306.5,140.5C 304.914,138.827 304.247,136.827 304.5,134.5C 305.345,133.329 306.011,131.995 306.5,130.5C 309.76,127.941 313.094,127.941 316.5,130.5 Z"/></g>
<g><path style="opacity:1" fill="#2b2828" d="M 302.5,128.5 C 303.738,130.214 304.405,132.214 304.5,134.5C 304.247,136.827 304.914,138.827 306.5,140.5C 314.124,144.355 318.124,142.022 318.5,133.5C 319.833,133.167 321.167,132.833 322.5,132.5C 323.648,136.981 323.815,141.648 323,146.5C 320.956,147.772 319.122,147.439 317.5,145.5C 311.017,148.826 305.517,147.493 301,141.5C 299.978,136.871 300.478,132.538 302.5,128.5 Z"/></g>
<g><path style="opacity:1" fill="#5e5b59" d="M 62.5,114.5 C 61.9107,121.159 62.9107,127.492 65.5,133.5C 65.1758,135.569 64.3425,135.902 63,134.5C 62.5012,138.486 62.3345,142.486 62.5,146.5C 61.1667,135.833 61.1667,125.167 62.5,114.5 Z"/></g>
<g><path style="opacity:1" fill="#2a2728" d="M 90.5,146.5 C 90.8312,138.14 90.4979,129.807 89.5,121.5C 88.8933,121.624 88.56,121.957 88.5,122.5C 85.2123,125.449 81.879,128.449 78.5,131.5C 74.2233,128.727 70.39,125.393 67,121.5C 66.6667,129.833 66.3333,138.167 66,146.5C 64.7083,147.791 63.5417,147.791 62.5,146.5C 62.3345,142.486 62.5012,138.486 63,134.5C 64.3425,135.902 65.1758,135.569 65.5,133.5C 62.9107,127.492 61.9107,121.159 62.5,114.5C 63.2506,113.427 64.2506,113.26 65.5,114C 69.382,118.183 73.5486,122.016 78,125.5C 82.5,121.667 87,117.833 91.5,114C 92.4491,113.383 93.2825,113.549 94,114.5C 94.6667,125.167 94.6667,135.833 94,146.5C 92.7083,147.791 91.5417,147.791 90.5,146.5 Z"/></g>
<g><path style="opacity:1" fill="#777167" d="M 88.5,122.5 C 88.56,121.957 88.8933,121.624 89.5,121.5C 90.4979,129.807 90.8312,138.14 90.5,146.5C 89.8333,138.5 89.1667,130.5 88.5,122.5 Z"/></g>
<g><path style="opacity:1" fill="#6a696a" d="M 19.5,137.5 C 19.5,140.167 19.5,142.833 19.5,145.5C 18.6204,143.863 17.9537,142.03 17.5,140C 17.6387,138.699 18.3054,137.866 19.5,137.5 Z"/></g>
<g><path style="opacity:1" fill="#2b292a" d="M 285.5,138.5 C 286.833,138.5 288.167,138.5 289.5,138.5C 289.5,140.833 289.5,143.167 289.5,145.5C 288.745,147.466 287.579,147.8 286,146.5C 285.503,143.854 285.336,141.187 285.5,138.5 Z"/></g>
<g><path style="opacity:1" fill="#8d887f" d="M 290.5,128.5 C 290.822,134.358 290.489,140.025 289.5,145.5C 289.5,143.167 289.5,140.833 289.5,138.5C 288.167,138.5 286.833,138.5 285.5,138.5C 285.5,137.5 285.5,136.5 285.5,135.5C 286.833,135.5 288.167,135.5 289.5,135.5C 289.567,133.599 289.233,131.766 288.5,130C 288.836,128.97 289.503,128.47 290.5,128.5 Z"/></g>
<g><path style="opacity:1" fill="#211f20" d="M 19.5,57.5 C 19.5,84.1667 19.5,110.833 19.5,137.5C 18.3054,137.866 17.6387,138.699 17.5,140C 17.9537,142.03 18.6204,143.863 19.5,145.5C 19.5,172.5 19.5,199.5 19.5,226.5C 18.5041,226.414 17.6708,226.748 17,227.5C 16.1667,170.164 16.3334,112.83 17.5,55.5C 18.1818,56.2427 18.8485,56.9094 19.5,57.5 Z"/></g>
<g><path style="opacity:1" fill="#c8c0a9" d="M 32.5,51.5 C 32.8333,51.5 33.1667,51.5 33.5,51.5C 32.5039,114.429 32.1706,177.429 32.5,240.5C 31.5128,235.695 31.1795,230.695 31.5,225.5C 31.5,224.5 31.5,223.5 31.5,222.5C 31.1677,165.331 31.501,108.331 32.5,51.5 Z"/></g>
<g><path style="opacity:1" fill="#464444" d="M 270.5,138.5 C 271.833,139.5 273.167,140.5 274.5,141.5C 270.622,148.394 265.788,149.061 260,143.5C 259.187,141.564 258.687,139.564 258.5,137.5C 260.167,137.5 261.833,137.5 263.5,137.5C 263.752,141.935 265.919,143.268 270,141.5C 270.483,140.552 270.649,139.552 270.5,138.5 Z"/></g>
<g><path style="opacity:1" fill="#8e897b" d="M 30.5,48.5 C 29.1819,63.9467 28.5153,79.6133 28.5,95.5C 28.6667,110.833 28.8333,126.167 29,141.5C 31,143.833 31,146.167 29,148.5C 28.5,173.164 28.3334,197.831 28.5,222.5C 29.5,222.5 30.5,222.5 31.5,222.5C 31.5,223.5 31.5,224.5 31.5,225.5C 30.5041,225.414 29.6708,225.748 29,226.5C 28.2153,232.249 28.3819,237.916 29.5,243.5C 27.5035,178.842 26.8368,113.842 27.5,48.5C 28.5,48.5 29.5,48.5 30.5,48.5 Z"/></g>
<g><path style="opacity:1" fill="#5b5651" d="M 16.5,40.5 C 15.9459,44.7437 16.9459,48.4103 19.5,51.5C 19.5,53.5 19.5,55.5 19.5,57.5C 18.8485,56.9094 18.1818,56.2427 17.5,55.5C 16.3334,112.83 16.1667,170.164 17,227.5C 17.6708,226.748 18.5041,226.414 19.5,226.5C 19.5,231.5 19.5,236.5 19.5,241.5C 18.7677,240.192 17.9344,238.858 17,237.5C 16.5008,242.155 16.3342,246.821 16.5,251.5C 15.1667,181.167 15.1667,110.833 16.5,40.5 Z"/></g>
<g><path style="opacity:1" fill="#545049" d="M 122.5,168.5 C 123.167,170.5 123.833,172.5 124.5,174.5C 123.631,178.532 121.798,179.198 119,176.5C 117,170.167 117,163.833 119,157.5C 121.48,155.91 123.313,156.41 124.5,159C 124.167,159.5 123.833,160 123.5,160.5C 122.833,159.5 122.167,158.5 121.5,157.5C 120.808,158.025 120.308,158.692 120,159.5C 119.333,164.167 119.333,168.833 120,173.5C 120.249,174.624 120.749,175.624 121.5,176.5C 122.48,173.914 122.813,171.247 122.5,168.5 Z"/></g>
<g><path style="opacity:1" fill="#47443f" d="M 146.5,156.5 C 148.195,158.732 149.362,161.399 150,164.5C 150.417,161.578 151.417,158.911 153,156.5C 151.853,163.557 150.186,170.557 148,177.5C 147.501,174.482 147.668,171.482 148.5,168.5C 147.702,164.511 147.035,160.511 146.5,156.5 Z"/></g>
<g><path style="opacity:1" fill="#322f2e" d="M 188.5,167.5 C 188.672,168.492 188.338,169.158 187.5,169.5C 187.067,166.834 186.567,164.168 186,161.5C 185.667,166.833 185.333,172.167 185,177.5C 184.169,170.476 184.336,163.476 185.5,156.5C 187.518,159.888 188.518,163.554 188.5,167.5 Z"/></g>
<g><path style="opacity:1" fill="#3b3835" d="M 193.5,156.5 C 193.664,159.187 193.497,161.854 193,164.5C 192.209,163.255 191.709,161.922 191.5,160.5C 191.229,158.62 191.896,157.287 193.5,156.5 Z"/></g>
<g><path style="opacity:1" fill="#43403e" d="M 238.5,156.5 C 239.117,156.611 239.617,156.944 240,157.5C 243.711,176.221 245.378,175.888 245,156.5C 245.667,163.5 245.667,170.5 245,177.5C 242.749,173.084 241.083,168.417 240,163.5C 239.667,168.167 239.333,172.833 239,177.5C 238.5,170.508 238.334,163.508 238.5,156.5 Z"/></g>
<g><path style="opacity:1" fill="#3b3835" d="M 135.5,159.5 C 136.088,161.907 137.088,164.24 138.5,166.5C 135.833,170.167 135.833,173.833 138.5,177.5C 137.726,178.711 136.893,178.711 136,177.5C 134.953,171.433 134.787,165.433 135.5,159.5 Z"/></g>
<g><path style="opacity:1" fill="#767165" d="M 193.5,156.5 C 194.655,163.321 194.821,170.321 194,177.5C 192.898,173.584 192.231,169.584 192,165.5C 191.802,167.382 191.302,169.048 190.5,170.5C 190.631,169.761 190.464,169.094 190,168.5C 189.722,169.416 189.222,170.082 188.5,170.5C 187.833,170.5 187.5,170.167 187.5,169.5C 188.338,169.158 188.672,168.492 188.5,167.5C 189.869,165.309 190.869,162.975 191.5,160.5C 191.709,161.922 192.209,163.255 193,164.5C 193.497,161.854 193.664,159.187 193.5,156.5 Z"/></g>
<g><path style="opacity:1" fill="#32302e" d="M 163.5,165.5 C 163.999,169.239 164.999,172.906 166.5,176.5C 167.086,176.291 167.586,175.957 168,175.5C 168.333,172.167 168.667,168.833 169,165.5C 169.827,169.541 169.66,173.541 168.5,177.5C 166.694,178.859 165.194,178.525 164,176.5C 163.501,172.848 163.335,169.182 163.5,165.5 Z"/></g>
<g><path style="opacity:1" fill="#2d2b2a" d="M 172.5,165.5 C 173.806,165.879 175.139,166.212 176.5,166.5C 175.758,167.287 174.925,167.953 174,168.5C 173.667,171.5 173.333,174.5 173,177.5C 172.501,173.514 172.334,169.514 172.5,165.5 Z"/></g>
<g><path style="opacity:1" fill="#635f59" d="M 218.5,165.5 C 222.976,165.8 224.31,167.967 222.5,172C 221.207,172.49 219.873,172.657 218.5,172.5C 218.5,173.833 218.5,175.167 218.5,176.5C 219.873,176.343 221.207,176.51 222.5,177C 220.53,178.871 218.863,178.538 217.5,176C 216.035,172.3 216.368,168.8 218.5,165.5 Z"/></g>
<g><path style="opacity:1" fill="#403c39" d="M 124.5,174.5 C 123.833,172.5 123.167,170.5 122.5,168.5C 121.624,168.631 120.957,168.298 120.5,167.5C 121.689,166.571 123.022,166.238 124.5,166.5C 124.5,169.167 124.5,171.833 124.5,174.5 Z"/></g>
<g><path style="opacity:1" fill="#353230" d="M 190.5,170.5 C 189.833,174.5 189.167,174.5 188.5,170.5C 189.222,170.082 189.722,169.416 190,168.5C 190.464,169.094 190.631,169.761 190.5,170.5 Z"/></g>
<g><path style="opacity:1" fill="#47433f" d="M 204.5,165.5 C 205.117,165.611 205.617,165.944 206,166.5C 206.667,169.167 207.333,171.833 208,174.5C 208.253,171.21 209.253,168.21 211,165.5C 209.121,182.797 206.955,182.797 204.5,165.5 Z"/></g>
<g><path style="opacity:1" fill="#faf0d5" d="M 218.5,167.5 C 219.5,167.5 220.5,167.5 221.5,167.5C 221.5,168.5 221.5,169.5 221.5,170.5C 220.5,170.5 219.5,170.5 218.5,170.5C 218.5,169.5 218.5,168.5 218.5,167.5 Z"/></g>
<g><path style="opacity:1" fill="#545049" d="M 128.5,165.5 C 129.822,165.33 130.989,165.663 132,166.5C 132.495,168.473 132.662,170.473 132.5,172.5C 131.167,172.5 129.833,172.5 128.5,172.5C 128.5,173.833 128.5,175.167 128.5,176.5C 132.588,176.218 133.088,176.885 130,178.5C 128.347,178.18 127.347,177.18 127,175.5C 126.037,171.851 126.537,168.518 128.5,165.5 Z"/></g>
<g><path style="opacity:1" fill="#efe5c7" d="M 128.5,167.5 C 129.5,167.5 130.5,167.5 131.5,167.5C 131.5,168.5 131.5,169.5 131.5,170.5C 130.5,170.5 129.5,170.5 128.5,170.5C 128.5,169.5 128.5,168.5 128.5,167.5 Z"/></g>
<g><path style="opacity:1" fill="#524e48" d="M 198.5,176.5 C 196.05,173.4 195.883,170.066 198,166.5C 199.333,165.167 200.667,165.167 202,166.5C 203.728,169.759 203.894,173.092 202.5,176.5C 201.042,177.782 199.708,177.782 198.5,176.5 Z"/></g>
<g><path style="opacity:1" fill="#f3e8ca" d="M 198.5,176.5 C 198.5,173.5 198.5,170.5 198.5,167.5C 199.5,167.5 200.5,167.5 201.5,167.5C 201.5,170.5 201.5,173.5 201.5,176.5C 200.5,176.5 199.5,176.5 198.5,176.5 Z"/></g>
<g><path style="opacity:1" fill="#545049" d="M 156.5,165.5 C 158.39,165.297 159.89,165.963 161,167.5C 161.667,170.5 161.667,173.5 161,176.5C 159.333,179.167 157.667,179.167 156,176.5C 153.965,172.719 154.132,169.052 156.5,165.5 Z"/></g>
<g><path style="opacity:1" fill="#f5ebcc" d="M 156.5,167.5 C 157.5,167.5 158.5,167.5 159.5,167.5C 159.817,170.572 159.484,173.572 158.5,176.5C 157.914,176.291 157.414,175.957 157,175.5C 156.503,172.854 156.336,170.187 156.5,167.5 Z"/></g>
<g><path style="opacity:1" fill="#4b4742" d="M 256.5,166.5 C 258.011,168.476 258.844,170.809 259,173.5C 260.667,164.167 262.333,164.167 264,173.5C 265.909,164.323 266.575,164.323 266,173.5C 265.71,175.044 265.044,176.377 264,177.5C 262.333,170.833 260.667,170.833 259,177.5C 256.925,174.166 256.091,170.499 256.5,166.5 Z"/></g>
<g><path style="opacity:1" fill="#3f3c39" d="M 225.5,165.5 C 227.346,165.222 228.68,165.889 229.5,167.5C 225.744,167.895 225.578,169.562 229,172.5C 229.494,174.134 229.66,175.801 229.5,177.5C 227.571,177.769 225.905,177.269 224.5,176C 229.571,175.838 229.738,174.005 225,170.5C 224.36,168.735 224.527,167.068 225.5,165.5 Z"/></g>
<g><path style="opacity:1" fill="#3b3835" d="M 249.5,165.5 C 251.39,165.297 252.89,165.963 254,167.5C 254.667,170.5 254.667,173.5 254,176.5C 252.333,179.167 250.667,179.167 249,176.5C 248.322,172.779 248.489,169.112 249.5,165.5 Z"/></g>
<g><path style="opacity:1" fill="#e9dfc2" d="M 250.5,167.5 C 252.95,167.874 253.95,169.374 253.5,172C 253.691,173.973 253.024,175.473 251.5,176.5C 249.215,173.822 248.882,170.822 250.5,167.5 Z"/></g>
<g><path style="opacity:1" fill="#2d2b2a" d="M 29.5,243.5 C 28.3819,237.916 28.2153,232.249 29,226.5C 29.6708,225.748 30.5041,225.414 31.5,225.5C 31.1795,230.695 31.5128,235.695 32.5,240.5C 111.348,267.538 192.014,274.371 274.5,261C 301.44,256.851 327.773,250.351 353.5,241.5C 353.5,178.167 353.5,114.833 353.5,51.5C 334.279,46.0652 314.946,40.8985 295.5,36C 251.016,26.2153 206.016,22.5486 160.5,25C 120.619,28.7559 81.6194,36.5892 43.5,48.5C 41.9519,48.1788 41.2852,47.1788 41.5,45.5C 106.111,24.1076 172.444,16.6076 240.5,23C 261.69,25.6069 282.69,29.2735 303.5,34C 321.125,39.1555 338.792,43.9888 356.5,48.5C 356.831,113.738 356.498,178.904 355.5,244C 328.691,254.286 301.025,261.286 272.5,265C 237.317,269.847 201.984,271.847 166.5,271C 119.582,267.783 73.9149,258.616 29.5,243.5 Z"/></g>
<g><path style="opacity:1" fill="#2b2928" d="M 19.5,241.5 C 19.5,244.167 19.5,246.833 19.5,249.5C 57.1736,262.584 95.8403,271.584 135.5,276.5C 135.804,277.15 136.137,277.817 136.5,278.5C 134.955,279.452 133.288,279.785 131.5,279.5C 91.8828,274.611 53.5494,265.277 16.5,251.5C 16.3342,246.821 16.5008,242.155 17,237.5C 17.9344,238.858 18.7677,240.192 19.5,241.5 Z"/></g>
<g><path style="opacity:1" fill="#6e6b68" d="M 135.5,276.5 C 137.415,276.216 139.081,276.549 140.5,277.5C 139.596,278.209 139.263,279.209 139.5,280.5C 136.615,280.806 133.948,280.473 131.5,279.5C 133.288,279.785 134.955,279.452 136.5,278.5C 136.137,277.817 135.804,277.15 135.5,276.5 Z"/></g>
</svg>
